solid ANGE
  facet normal 0 0 -1
    outer loop
      vertex -60 -60 56
      vertex 0 68 56
      vertex 60 -60 56
    endloop
  endfacet
  facet normal 0 0.88148 0.472221
    outer loop
      vertex -60 -60 56
      vertex 60 -60 56
      vertex 0 0 -56
    endloop
  endfacet
  facet normal -0.876814 -0.411007 0.24954
    outer loop
      vertex 60 -60 56
      vertex 0 68 56
      vertex 0 0 -56
    endloop
  endfacet
  facet normal 0.876814 -0.411007 0.24954
    outer loop
      vertex 0 68 56
      vertex -60 -60 56
      vertex 0 0 -56
    endloop
  endfacet
endsolid TRIANGLE
